# xmcd
#
# Track frame offsets:
#	150
#	13331
#	29395
#	43961
#	60985
#	73242
#	89009
#	102650
#	122021
#	135380
#	147732
#
# Disc length: 2170 seconds
#
# Revision: 0
# Processed by: cddbd v1.5.2PL0 Copyright (c) Steve Scherf et al.
# Submitted via: audiograbber 1.80
#
DISCID=ab08780b
DTITLE=C.W. Stoneking - King Hokum
DYEAR=1900
DGENRE=
TTITLE0=Way out in the world
TTITLE1=Don´t go dancing down the darktown strutter´s ball
TTITLE2=She´s a bread baker
TTITLE3=Dodo Blues
TTITLE4=On a Christmas day
TTITLE5=Charley Bostocks Blues
TTITLE6=Goin the country
TTITLE7=Bad luck everywhere you go
TTITLE8=Rich man´s blues
TTITLE9=You took my thing
TTITLE10=Handyman Blues
EXTD=
EXTT0=
EXTT1=
EXTT2=
EXTT3=
EXTT4=
EXTT5=
EXTT6=
EXTT7=
EXTT8=
EXTT9=
EXTT10=
PLAYORDER=
